<?xml version="1.0" encoding="utf-8"?>
<!-- Generator: Adobe Illustrator 21.0.0, SVG Export Plug-In . SVG Version: 6.00 Build 0)  -->
<svg version="1.1" id="レイヤー_1" xmlns="http://www.w3.org/2000/svg" xmlns:xlink="http://www.w3.org/1999/xlink" x="0px"
	 y="0px" viewBox="0 0 80.6 17.2" style="enable-background:new 0 0 80.6 17.2;" xml:space="preserve">
<style type="text/css">
	.st0{fill:#BE0008;}
	.st1{fill:#3E3A39;}
</style>
<g>
	<path class="st0" d="M14.5,11.4L14.5,11.4c-0.1,0-0.2-0.1-0.2-0.2c0,0,0-0.1,0-0.1l0,0c0.6-1.1,0.9-2.3,0.9-3.5
		c0-4.2-3.4-7.6-7.6-7.6C3.4,0,0,3.4,0,7.6c0,4.2,3.4,7.6,7.6,7.6c1.3,0,2.5-0.3,3.5-0.9l0,0c0,0,0.1,0,0.1,0c0.1,0,0.2,0.1,0.2,0.2
		l0,0c0.1,1.5,1.3,2.8,2.9,2.8c1.6,0,2.9-1.3,2.9-2.9C17.2,12.8,16,11.5,14.5,11.4z"/>
	<circle class="st0" cx="33.3" cy="12.5" r="0.7"/>
	<path class="st1" d="M29.3,7.4h-7.2V3.8H21v3.6v1.1v3.6v1.1h1.1h7.2c0.6,0,1.1-0.5,1.1-1.1V8.5C30.4,7.9,29.9,7.4,29.3,7.4z
		 M22.1,8.5h6.5c0.4,0,0.7,0.3,0.7,0.7v2.2c0,0.4-0.3,0.7-0.7,0.7h-6.5V8.5z"/>
	<g>
		<path class="st1" d="M79.5,7.4h-7.2c-0.6,0-1.1,0.5-1.1,1.1v3.6c0,0.6,0.5,1.1,1.1,1.1H80v-1.1h-7c-0.4,0-0.7-0.3-0.7-0.7v-0.6
			h7.2c0.6,0,1.1-0.5,1.1-1.1V8.5C80.6,7.9,80.1,7.4,79.5,7.4z M79.5,9.3c0,0.2-0.2,0.4-0.4,0.4h-6.7V9.2c0-0.4,0.3-0.7,0.7-0.7h6
			c0.2,0,0.4,0.2,0.4,0.4V9.3z"/>
	</g>
	<path class="st1" d="M44.5,7.4h-3c-0.2,0-0.4,0.1-0.6,0.2c-0.2-0.1-0.4-0.2-0.6-0.2h-3h-1.1v1.1v4.7h1.1V8.5h2.3
		c0.4,0,0.7,0.3,0.7,0.7v4h1.1v-4c0-0.4,0.3-0.7,0.7-0.7h1.7c0.4,0,0.7,0.3,0.7,0.7v4h1.1V8.5C45.6,7.9,45.1,7.4,44.5,7.4z"/>
	<path class="st1" d="M56.1,7.4H49c-0.6,0-1.1,0.5-1.1,1.1v3.6c0,0.6,0.5,1.1,1.1,1.1h7.2c0.6,0,1.1-0.5,1.1-1.1V8.5
		C57.3,7.9,56.8,7.4,56.1,7.4z M56.1,11.4c0,0.4-0.3,0.7-0.7,0.7h-5.8c-0.4,0-0.7-0.3-0.7-0.7V9.2c0-0.4,0.3-0.7,0.7-0.7h5.8
		c0.4,0,0.7,0.3,0.7,0.7V11.4z"/>
	<path class="st1" d="M60.6,7.4h7.2V3.8h1.1v3.6v1.1v3.6v1.1h-1.1h-7.2c-0.6,0-1.1-0.5-1.1-1.1V8.5C59.5,7.9,60,7.4,60.6,7.4z
		 M67.8,8.5h-6.5c-0.4,0-0.7,0.3-0.7,0.7v2.2c0,0.4,0.3,0.7,0.7,0.7h6.5V8.5z"/>
</g>
</svg>
